<svg xmlns="http://www.w3.org/2000/svg" width="12" height="12" viewBox="0 0 12 12" version="1.1"><title>icon-grey-needs-work</title><g stroke="none" stroke-width="1" fill="none" fill-rule="evenodd"><g fill="#707070"><path d="M8.3 0.5C9.1 0.8 9.7 1.2 10.2 1.8 10.8 2.3 11.2 2.9 11.5 3.7 11.8 4.4 12 5.2 12 6 12 6.8 11.8 7.6 11.5 8.3 11.2 9.1 10.8 9.7 10.2 10.2 9.7 10.8 9.1 11.2 8.3 11.5 7.6 11.8 6.8 12 6 12 5.2 12 4.4 11.8 3.7 11.5 2.9 11.2 2.3 10.8 1.8 10.2 1.2 9.7 0.8 9.1 0.5 8.3 0.2 7.6 0 6.8 0 6 0 5.2 0.2 4.4 0.5 3.7 0.8 2.9 1.2 2.3 1.8 1.8 2.3 1.2 2.9 0.8 3.7 0.5 4.4 0.2 5.2 0 6 0 6.8 0 7.6 0.2 8.3 0.5ZM9.2 7.8C9.4 8 9.4 8.3 9.2 8.5L8.5 9.2C8.3 9.4 8 9.4 7.8 9.2L2.8 4.2C2.6 4 2.6 3.7 2.8 3.5L3.5 2.8C3.7 2.6 4 2.6 4.2 2.8L9.2 7.8Z"/></g></g></svg>