<?xml version="1.0" encoding="utf-8"?>
<!-- Generator: Adobe Illustrator 18.0.0, SVG Export Plug-In . SVG Version: 6.00 Build 0)  -->
<!DOCTYPE svg PUBLIC "-//W3C//DTD SVG 1.1//EN" "http://www.w3.org/Graphics/SVG/1.1/DTD/svg11.dtd">
<svg version="1.1" id="Layer_1" xmlns="http://www.w3.org/2000/svg" xmlns:xlink="http://www.w3.org/1999/xlink" x="0px" y="0px"
	 viewBox="364.1 271 461 300" enable-background="new 364.1 271 461 300" xml:space="preserve">
<path opacity="0.6" fill="#FFE1A4" enable-background="new    " d="M738.5,503.7c6.6-17,10.3-35.5,10.3-54.7
	c0-83.2-67.5-150.6-150.6-150.6S447.6,365.9,447.6,449c0,19.4,3.7,37.8,10.3,54.7H738.5z"/>
<path opacity="0.1" fill="#205182" enable-background="new    " d="M783.1,415.2c-4-7.6-11.9-12.7-21.1-12.7c-1.1,0-2.3,0.1-3.3,0.3
	c-3.5-13.4-15.7-23.5-30.3-23.5c-12.9,0-23.9,7.8-28.7,18.8c-3.5-1.3-7.4-2-11.3-2c-13.2,0-24.6,7.9-29.7,19.2h124.3V415.2z"/>
<g>
	<path fill="#FEBD1B" d="M498.8,506.6c-1,0-2-0.6-2.5-1.4c-9.5-17.1-14.4-36.5-14.4-56.1c0-64.2,52.2-116.4,116.4-116.4
		S714.6,384.8,714.6,449c0,19.7-4.9,39-14.4,56.1c-0.6,0.8-1.4,1.4-2.5,1.4H498.8z"/>
	<path fill="#205182" d="M598.2,335.5c62.6,0,113.6,50.8,113.6,113.6c0,19.8-5.1,38.6-14.1,54.7H498.8
		c-8.9-16.3-14.1-34.9-14.1-54.7C484.6,386.2,535.5,335.5,598.2,335.5 M598.2,329.8C532.4,329.8,479,383.3,479,449
		c0,20.1,5.1,40,14.8,57.6c1,1.8,2.8,3,4.9,3h198.8c2.1,0,4-1.1,4.9-3c9.6-17.5,14.8-37.5,14.8-57.6
		C717.4,383.3,663.9,329.8,598.2,329.8L598.2,329.8z"/>
</g>
<g opacity="0.6">
	<path fill="#FFE1A4" d="M703.8,454.4c0,17.7-4.1,34.5-11.3,49.5h5.1c8.9-16.3,14.1-34.9,14.1-54.7c0-62.6-50.8-113.6-113.6-113.6
		c-25.3,0-48.8,8.3-67.7,22.3c17.4-10.7,37.9-17,59.8-17C653,340.8,703.8,391.6,703.8,454.4z"/>
</g>
<g>
	<g>
		<path fill="#51C3C4" d="M700.7,526.8V524c0-23.2,18.9-42.1,42.1-42.1c23.2,0,42.1,18.9,42.1,42.1v2.8H700.7z"/>
		<path fill="#205182" d="M742.8,484.7c21.6,0,39.3,17.5,39.3,39.3h-78.5C703.5,502.2,721.1,484.7,742.8,484.7 M742.8,479
			c-24.7,0-45,20.2-45,45v5.7h5.7H782h5.7V524C787.7,499.2,767.6,479,742.8,479L742.8,479z"/>
	</g>
	<path opacity="0.15" fill="#205182" enable-background="new    " d="M742.8,484.7c-21.6,0-39.3,17.5-39.3,39.3h63.4
		c-2.5-15-9.6-28.6-19.8-39C745.7,484.8,744.3,484.7,742.8,484.7z"/>
	<g>
		<path fill="#51C3C4" d="M402.2,526.8V524c0-25.7,20.9-46.7,46.7-46.7c25.7,0,46.7,20.9,46.7,46.7v2.8H402.2z"/>
		<path fill="#205182" d="M449,480c24.2,0,43.8,19.7,43.8,43.8H405C405,499.6,424.7,480,449,480 M449,474.3
			c-27.3,0-49.5,22.2-49.5,49.5v5.7h5.7H493h5.7v-5.7C498.5,496.7,476.3,474.3,449,474.3L449,474.3z"/>
	</g>
	<path opacity="0.15" fill="#205182" enable-background="new    " d="M449,480c-0.3,0-0.4,0-0.7,0c-8.9,12.4-14.4,27.6-15.1,43.8
		h59.7C492.8,499.6,473.2,480,449,480z"/>
	<g>
		<path fill="#51C3C4" d="M446,526.8l0.1-3c2.1-45.5,39.6-81.2,85.3-81.2c27.7,0,53.9,13.6,69.9,36.3c2.7,4,7.1,6.2,12,6.2
			c4,0,7.8-1.6,10.6-4.2c14.4-13.7,33.2-21.4,53.2-21.4c37.6,0,69.4,26.9,75.8,63.9l0.6,3.3H446z"/>
		<path fill="#205182" d="M531.3,445.5c28,0,52.6,13.9,67.6,35.2c3.4,4.9,8.8,7.4,14.3,7.4c4.5,0,9.1-1.7,12.6-5.1
			c13.3-12.7,31.3-20.5,51.2-20.5c36.6,0,67,26.6,73,61.5H449C451,480.3,487.2,445.5,531.3,445.5 M531.3,439.8
			c-47.1,0-85.8,36.9-88.1,83.9l-0.3,5.9h5.9h300.9h6.6l-1.1-6.6c-3.1-18.4-12.6-35.1-26.9-47.2c-14.4-12.3-32.8-19.1-51.6-19.1
			c-20.6,0-40.2,7.8-55,22.1c-2.4,2.3-5.4,3.5-8.6,3.5c-4,0-7.5-1.8-9.6-4.9C587,453.8,560,439.8,531.3,439.8L531.3,439.8z"/>
	</g>
	<path opacity="0.15" fill="#205182" enable-background="new    " d="M492.5,455.7c28,0,52.6,13.9,67.6,35.2
		c6.2,8.9,18.9,9.9,26.9,2.3c4.1-4,8.8-7.5,13.7-10.3c-0.6-0.7-1.3-1.4-1.7-2.1c-14.8-21.2-39.6-35.2-67.6-35.2
		c-14.4,0-28,3.7-39.7,10.2C491.8,455.7,492.3,455.7,492.5,455.7z"/>
	<path fill="#71CBCF" d="M691.6,471.8c18.5,2.8,34.5,12.7,47.2,24.2c-13.2-20.2-36.1-33.7-61.9-33.7c-19.8,0-37.9,7.8-51.2,20.5
		C654.2,469,668.7,468.4,691.6,471.8z"/>
</g>
<g>
	<g>
		<circle fill="#205182" cx="572" cy="392.3" r="4.8"/>
		<circle fill="#205182" cx="624.3" cy="392.3" r="4.8"/>
	</g>
	<g>
		<path fill="#3773B1" d="M597.5,431.1c-11.3,0-21.1-8.5-22.5-19.8c-0.1-1.4,0.3-3,1.3-4c1-1.1,2.3-1.7,3.8-1.7H615
			c1.4,0,2.8,0.6,3.8,1.7c1,1.1,1.4,2.5,1.3,4C618.5,422.6,608.8,431.1,597.5,431.1z"/>
		<path fill="#205182" d="M615,408.4c1.3,0,2.4,1.1,2.1,2.5c-1.3,9.8-9.6,17.3-19.7,17.3s-18.4-7.5-19.7-17.3
			c-0.1-1.3,0.8-2.5,2.1-2.5H615 M615,402.8h-34.9c-2.3,0-4.4,1-5.9,2.7c-1.6,1.7-2.3,4-1.8,6.2c1.6,12.7,12.4,22.2,25.3,22.2
			s23.6-9.6,25.3-22.2c0.3-2.3-0.4-4.5-1.8-6.2C619.4,403.8,617.1,402.8,615,402.8L615,402.8z"/>
	</g>
	<g opacity="0.15">
		<path fill="#205182" d="M578.1,412.4h38.7c0.1-0.4,0.1-1,0.3-1.4c0.1-1.3-0.8-2.5-2.1-2.5h-34.9c-1.3,0-2.4,1.1-2.1,2.5
			C578,411.4,578,412,578.1,412.4z"/>
	</g>
</g>
<g>
	<circle fill="#E9E9E9" cx="767.9" cy="300.5" r="27.6"/>
	<path fill="#205182" d="M767.9,330.1c-16.3,0-29.6-13.3-29.6-29.6c0-16.3,13.3-29.6,29.6-29.6c16.3,0,29.6,13.3,29.6,29.6
		C797.4,316.8,784.2,330.1,767.9,330.1z M767.9,275c-14.1,0-25.6,11.5-25.6,25.6c0,14.1,11.5,25.6,25.6,25.6s25.6-11.5,25.6-25.6
		C793.4,286.4,782,275,767.9,275z"/>
</g>
<g>
	<path opacity="0.15" fill="#205182" enable-background="new    " d="M740.4,302.7c0.6,7.2,3.8,13.6,8.9,18.2
		c1.4-1.8,2.4-4.2,2.4-6.9C751.6,307.7,746.7,302.8,740.4,302.7z"/>
	<circle opacity="0.15" fill="#205182" enable-background="new    " cx="772.8" cy="309" r="7.1"/>
	<path opacity="0.15" fill="#205182" enable-background="new    " d="M793.6,290.5c-2.8-7.2-8.5-12.9-15.7-15.7
		c-3.1,2-5.1,5.5-5.1,9.5c0,6.2,5.1,11.3,11.3,11.3C788.1,295.6,791.5,293.6,793.6,290.5z"/>
</g>
<path opacity="0.15" fill="#205182" enable-background="new    " d="M496.8,353.1c-1.8-3.5-5.7-6.1-10-6.1c-0.6,0-1,0-1.6,0.1
	c-1.7-6.4-7.5-11.2-14.4-11.2c-6.1,0-11.3,3.7-13.6,8.9c-1.7-0.6-3.4-1-5.4-1c-6.2,0-11.6,3.7-14,9.1h59V353.1z"/>
<rect x="364.1" y="525.6" fill="#205182" width="461" height="4"/>
<path opacity="0.15" fill="#205182" enable-background="new    " d="M825.1,526.8h-461v18.7c0,4.7,3.8,8.5,8.5,8.5h81.6
	c4.6,0,8.5,3.8,8.5,8.5l0,0c0,4.7,3.8,8.5,8.5,8.5h244.6c4.6,0,8.5-3.8,8.5-8.5l0,0c0-4.7,3.8-8.5,8.5-8.5h84.1
	c4.6,0,8.5-3.8,8.5-8.5V526.8z"/>
</svg>
