<?xml version="1.0" encoding="utf-8"?>
<!-- Generator: Adobe Illustrator 16.0.3, SVG Export Plug-In . SVG Version: 6.00 Build 0)  -->
<!DOCTYPE svg PUBLIC "-//W3C//DTD SVG 1.1//EN" "http://www.w3.org/Graphics/SVG/1.1/DTD/svg11.dtd">
<svg version="1.1" id="Layer_1" xmlns="http://www.w3.org/2000/svg" xmlns:xlink="http://www.w3.org/1999/xlink" x="0px" y="0px"
	 width="48px" height="48px" viewBox="0 0 48 48" enable-background="new 0 0 48 48" xml:space="preserve">
<g id="Shape_83">
	<g>
		<path fill="#CCCCCC" d="M44.5,13.498L34.5,6v4.998h-7.793c-6.681,0.293-8.907,7.362-12.227,7.499
			c-1.23,0.02-9.98,0.038-9.98,0.038v4.992l14.98-0.012c0.43-1.133,1.484-3.398,2.969-4.96c1.328-1.093,2.555-2.396,4.551-2.557h7.5
			v4.997L44.5,13.498z"/>
	</g>
</g>
<g id="Shape_83_2_">
	<g>
		<path fill="#CCCCCC" d="M44.5,33.5l-10-7.497V31H27c-1.996-0.16-3.223-1.465-4.551-2.559c-1.484-1.562-2.539-3.838-2.969-4.97
			L4.5,23.484v4.977c0,0,7.5,0.035,9.981,0.042c3.323,0.005,5.546,7.204,12.226,7.495H34.5v4.998L44.5,33.5z"/>
	</g>
</g>
<rect x="4.5" y="21.625" fill="#CCCCCC" width="15" height="4.656"/>
</svg>
