<?xml version="1.0" encoding="utf-8"?>
<!-- Generator: Adobe Illustrator 16.0.3, SVG Export Plug-In . SVG Version: 6.00 Build 0)  -->
<!DOCTYPE svg PUBLIC "-//W3C//DTD SVG 1.1//EN" "http://www.w3.org/Graphics/SVG/1.1/DTD/svg11.dtd">
<svg version="1.1" id="Layer_1" xmlns="http://www.w3.org/2000/svg" xmlns:xlink="http://www.w3.org/1999/xlink" x="0px" y="0px"
	 width="48px" height="48px" viewBox="0 0 48 48" enable-background="new 0 0 48 48" xml:space="preserve">
<g>
	<path fill="#CCCCCC" d="M6.76,43.35c-0.384,0-0.768-0.146-1.061-0.439c-0.586-0.586-0.586-1.535,0-2.121l4.997-4.997
		c0.586-0.586,1.535-0.586,2.121,0s0.586,1.535,0,2.121L7.82,42.91C7.527,43.203,7.144,43.35,6.76,43.35z"/>
	<path fill="#CCCCCC" d="M12.386,43.612c-0.384,0-0.768-0.146-1.061-0.439c-0.586-0.586-0.586-1.535,0-2.121l2.315-2.315
		c0.586-0.586,1.535-0.586,2.121,0s0.586,1.535,0,2.121l-2.315,2.315C13.153,43.466,12.77,43.612,12.386,43.612z"/>
	<path fill="#CCCCCC" d="M6.496,37.723c-0.384,0-0.769-0.146-1.062-0.439c-0.585-0.586-0.585-1.536,0.001-2.122l2.316-2.314
		c0.586-0.584,1.536-0.585,2.122,0.001c0.585,0.586,0.585,1.536-0.001,2.122l-2.316,2.314C7.264,37.576,6.88,37.723,6.496,37.723z"
		/>
	<path fill="none" stroke="#CCCCCC" stroke-width="3" stroke-linecap="round" stroke-linejoin="round" stroke-miterlimit="10" d="
		M20.977,12.594c0,0-8.428-2.967-16.525,10.959"/>
	<g>
		<path fill="none" stroke="#CCCCCC" stroke-width="3" d="M21.718,13.314c0,0-9.17-3.688-17.267,10.238
			c0,0,4.465-5.073,10.825-3.461C17.259,17.41,19.448,15.172,21.718,13.314z"/>
		<path fill="none" stroke="#CCCCCC" stroke-width="3" d="M15.276,20.092c-1.936,2.617-3.679,5.651-5.085,9.201l9.126,9.126
			C32.32,33.268,38.603,23.705,41.64,15.988l-8.127-8.112l-0.899-0.898c-3.45,1.355-7.268,3.37-10.896,6.337"/>
	</g>
	<path fill="#CCCCCC" d="M33.218,18.94c-0.98,0.98-2.572,0.98-3.551,0.001c-0.981-0.98-0.979-2.57,0.001-3.55
		c0.98-0.979,2.564-0.979,3.547,0.002C34.193,16.373,34.196,17.961,33.218,18.94"/>
	<path fill="#CCCCCC" d="M27.591,24.566c-0.979,0.98-2.569,0.979-3.548,0c-0.981-0.981-0.981-2.568,0-3.549
		c0.98-0.98,2.567-0.982,3.549,0C28.57,21.996,28.572,23.586,27.591,24.566"/>
	<path fill="#CCCCCC" d="M21.967,30.191c-0.979,0.979-2.568,0.978-3.549-0.001c-0.981-0.982-0.979-2.569,0-3.548
		c0.98-0.98,2.568-0.983,3.55-0.001C22.946,27.62,22.946,29.211,21.967,30.191"/>
	<path fill="none" stroke="#CCCCCC" stroke-width="3" stroke-linecap="round" stroke-linejoin="round" stroke-miterlimit="10" d="
		M32.617,6.973c6.59-2.591,11.834-2.812,11.834-2.812s-0.219,5.24-2.812,11.827"/>
	<path fill="none" stroke="#CCCCCC" stroke-width="3" stroke-linecap="round" stroke-linejoin="round" stroke-miterlimit="10" d="
		M41.64,15.988c-1.589-1.027-3.303-2.415-4.963-4.074c-1.651-1.652-3.031-3.355-4.062-4.938l0.002-0.003"/>
</g>
<path fill="none" stroke="#CCCCCC" stroke-width="3" stroke-linecap="round" stroke-linejoin="round" stroke-miterlimit="10" d="
	M36.21,27.826c0,0,2.967,8.429-10.959,16.525"/>
<path fill="none" stroke="#CCCCCC" stroke-width="3" d="M35.489,27.086c0,0,3.687,9.17-10.238,17.266c0,0,5.072-4.465,3.462-10.826
	C31.394,31.544,33.633,29.355,35.489,27.086z"/>
</svg>
