<?xml version="1.0" encoding="utf-8"?>
<!-- Generator: Adobe Illustrator 16.0.3, SVG Export Plug-In . SVG Version: 6.00 Build 0)  -->
<!DOCTYPE svg PUBLIC "-//W3C//DTD SVG 1.1//EN" "http://www.w3.org/Graphics/SVG/1.1/DTD/svg11.dtd">
<svg version="1.1" id="Layer_1" xmlns="http://www.w3.org/2000/svg" xmlns:xlink="http://www.w3.org/1999/xlink" x="0px" y="0px"
	 width="48px" height="48px" viewBox="0 0 48 48" enable-background="new 0 0 48 48" xml:space="preserve">
<g>
	<path fill="#CCCCCC" d="M34,28.232v3.686c0,0.456-0.537,0.912-0.992,0.988l-4.789,0.874c-0.457,0.075-0.686,0.455-0.42,0.835
		l2.717,4.028c0.229,0.38,0.18,0.987-0.162,1.329l-2.588,2.584c-0.344,0.342-0.916,0.38-1.295,0.114l-4.027-2.698
		c-0.381-0.266-0.801-0.113-0.877,0.342l-0.873,4.8C20.617,45.57,20.162,46,19.705,46H16.02c-0.455,0-0.912-0.43-0.988-0.886
		l-0.873-4.774c-0.076-0.455-0.494-0.62-0.873-0.354l-3.99,2.691c-0.418,0.266-0.988,0.225-1.33-0.117l-2.584-2.585
		c-0.342-0.342-0.379-0.95-0.15-1.33l2.734-4.029c0.266-0.38,0.076-0.76-0.379-0.835l-4.732-0.874C2.398,32.83,2,32.374,2,31.918
		v-3.686c0-0.456,0.398-0.912,0.854-0.987l4.723-0.874c0.455-0.114,0.65-0.494,0.385-0.874L5.229,21.47
		C5,21.09,5.037,20.52,5.379,20.178l2.586-2.584c0.342-0.342,0.912-0.418,1.33-0.151l3.99,2.735c0.379,0.229,0.797,0.076,0.873-0.38
		l0.873-4.837C15.107,14.506,15.564,14,16.02,14h3.686c0.457,0,0.912,0.506,0.988,0.961l0.873,4.774
		c0.076,0.456,0.494,0.64,0.875,0.411l4.027-2.72c0.379-0.267,0.949-0.183,1.291,0.159l2.584,2.588
		c0.342,0.342,0.381,0.914,0.152,1.294l-2.736,4.028c-0.266,0.38-0.076,0.76,0.381,0.875l4.867,0.874
		C33.463,27.32,34,27.776,34,28.232z M24,30c0-3.154-2.809-6-6-6c-3.154,0-6,2.846-6,6c0,3.153,2.846,6,6,6
		C21.191,36,24,33.153,24,30z"/>
</g>
<g>
	<path fill="#CCCCCC" d="M46,9.116v1.843c0,0.228-0.269,0.456-0.496,0.494l-2.395,0.437c-0.229,0.038-0.343,0.228-0.21,0.417
		l1.358,2.014c0.114,0.19,0.09,0.494-0.081,0.665l-1.294,1.292c-0.172,0.171-0.458,0.19-0.647,0.057l-2.014-1.349
		c-0.19-0.133-0.4-0.057-0.438,0.171l-0.437,2.399C39.309,17.785,39.081,18,38.853,18H37.01c-0.228,0-0.456-0.215-0.494-0.443
		l-0.437-2.387c-0.038-0.228-0.247-0.31-0.437-0.177l-1.995,1.346c-0.209,0.133-0.494,0.112-0.665-0.059l-1.292-1.292
		c-0.171-0.171-0.189-0.475-0.075-0.665l1.367-2.015c0.133-0.19,0.038-0.38-0.189-0.417l-2.366-0.437
		C30.199,11.415,30,11.187,30,10.959V9.116c0-0.228,0.199-0.456,0.427-0.494l2.361-0.437c0.228-0.057,0.325-0.247,0.192-0.437
		l-1.366-2.014c-0.114-0.19-0.096-0.475,0.075-0.646l1.293-1.292c0.171-0.171,0.456-0.209,0.665-0.076l1.995,1.368
		c0.189,0.114,0.398,0.038,0.437-0.19l0.437-2.418C36.554,2.253,36.782,2,37.01,2h1.843c0.229,0,0.456,0.253,0.494,0.48l0.437,2.387
		c0.038,0.228,0.247,0.32,0.438,0.206l2.014-1.36c0.189-0.133,0.475-0.091,0.646,0.08l1.292,1.294
		c0.171,0.171,0.19,0.457,0.076,0.647L42.88,7.748c-0.133,0.19-0.038,0.38,0.19,0.438l2.434,0.437C45.731,8.66,46,8.888,46,9.116z
		 M41,10c0-1.577-1.404-3-3-3c-1.577,0-3,1.423-3,3c0,1.577,1.423,3,3,3C39.596,13,41,11.577,41,10z"/>
</g>
</svg>
