<?xml version="1.0" encoding="UTF-8" standalone="no"?>
<svg width="16px" height="16px" viewBox="0 0 16 16" version="1.1" xmlns="http://www.w3.org/2000/svg" xmlns:xlink="http://www.w3.org/1999/xlink">
    <g stroke="none" stroke-width="1" fill="none" fill-rule="evenodd" >
        <g id="icon-approved" >
            <path d="M11.1089588,0.634382567 C12.0968572,1.05730639 12.9475348,1.62550087 13.6610169,2.33898305 C14.3744991,3.05246523 14.9426936,3.90314276 15.3656174,4.89104116 C15.7885413,5.87893956 16,6.91524881 16,8 C16,9.08475119 15.7885413,10.1210604 15.3656174,11.1089588 C14.9426936,12.0968572 14.3744991,12.9475348 13.6610169,13.6610169 C12.9475348,14.3744991 12.0968572,14.9426936 11.1089588,15.3656174 C10.1210604,15.7885413 9.08475119,16 8,16 C6.91524881,16 5.87893956,15.7885413 4.89104116,15.3656174 C3.90314276,14.9426936 3.05246523,14.3744991 2.33898305,13.6610169 C1.62550087,12.9475348 1.05730639,12.0968572 0.634382567,11.1089588 C0.211458741,10.1210604 0,9.08475119 0,8 C0,6.91524881 0.211458741,5.87893956 0.634382567,4.89104116 C1.05730639,3.90314276 1.62550087,3.05246523 2.33898305,2.33898305 C3.05246523,1.62550087 3.90314276,1.05730639 4.89104116,0.634382567 C5.87893956,0.211458741 6.91524881,0 8,0 C9.08475119,0 10.1210604,0.211458741 11.1089588,0.634382567 Z" fill="#FFFFFF" ></path>
            <path d="M10.3317191,2.47578692 C11.0726429,2.79297979 11.7106511,3.21912565 12.2457627,3.75423729 C12.7808743,4.28934892 13.2070202,4.92735707 13.5242131,5.66828087 C13.8414059,6.40920467 14,7.18643661 14,8 C14,8.81356339 13.8414059,9.59079533 13.5242131,10.3317191 C13.2070202,11.0726429 12.7808743,11.7106511 12.2457627,12.2457627 C11.7106511,12.7808743 11.0726429,13.2070202 10.3317191,13.5242131 C9.59079533,13.8414059 8.81356339,14 8,14 C7.18643661,14 6.40920467,13.8414059 5.66828087,13.5242131 C4.92735707,13.2070202 4.28934892,12.7808743 3.75423729,12.2457627 C3.21912565,11.7106511 2.79297979,11.0726429 2.47578692,10.3317191 C2.15859406,9.59079533 2,8.81356339 2,8 C2,7.18643661 2.15859406,6.40920467 2.47578692,5.66828087 C2.79297979,4.92735707 3.21912565,4.28934892 3.75423729,3.75423729 C4.28934892,3.21912565 4.92735707,2.79297979 5.66828087,2.47578692 C6.40920467,2.15859406 7.18643661,2 8,2 C8.81356339,2 9.59079533,2.15859406 10.3317191,2.47578692 Z"  fill="#14892C" ></path>
            <path d="M10.8984375,5 C10.8098954,5 10.729167,5.02604141 10.65625,5.078125 L7.09375,8.671875 C7.03124969,8.73437531 6.95572961,8.765625 6.8671875,8.765625 C6.77864539,8.765625 6.70312531,8.73437531 6.640625,8.671875 L5.34375,7.375 C5.28124969,7.30208297 5.20312547,7.265625 5.109375,7.265625 C5.01562453,7.265625 4.94270859,7.30208297 4.890625,7.375 L4.078125,8.171875 C4.02604141,8.23437531 4,8.30989539 4,8.3984375 C4,8.48697961 4.02604141,8.56249969 4.078125,8.625 L6.125,10.6875 C6.18229195,10.744792 6.26432238,10.7955727 6.37109375,10.8398438 C6.47786512,10.8841148 6.57812453,10.90625 6.671875,10.90625 L7.046875,10.90625 C7.22395922,10.90625 7.40624906,10.8333341 7.59375,10.6875 L11.921875,6.328125 C11.9739586,6.27604141 12,6.20572961 12,6.1171875 C12,6.02864539 11.9739586,5.94791703 11.921875,5.875 L11.109375,5.078125 C11.0572914,5.02604141 10.9869796,5 10.8984375,5 Z" fill="#FFFFFF" ></path>
        </g>
    </g>
</svg>