<?xml version="1.0" encoding="UTF-8" standalone="no"?>
<svg width="177px" height="217px" viewBox="0 0 177 217" version="1.1" xmlns="http://www.w3.org/2000/svg" xmlns:xlink="http://www.w3.org/1999/xlink" xmlns:sketch="http://www.bohemiancoding.com/sketch/ns">
    <!-- Generator: Sketch 3.3.3 (12081) - http://www.bohemiancoding.com/sketch -->
    <title>stash-account-private</title>
    <desc>Created with Sketch.</desc>
    <defs></defs>
    <g id="Page-1" stroke="none" stroke-width="1" fill="none" fill-rule="evenodd" sketch:type="MSPage">
        <g id="stash-account-private" sketch:type="MSArtboardGroup">
            <g id="Imported-Layers" sketch:type="MSLayerGroup">
                <path d="M172.417,121.485 C172.417,121.485 159.083,85.485 101.75,81.818 C44.416,78.152 21.716,101.545 12.383,121.485 L32.383,155.535 C32.383,155.535 29.905,184 0.75,187.818 C0.75,187.818 83.595,250.334 172.417,190.818 L144.938,164.485 L172.417,121.485" id="Fill-1" fill="#E9E9E9" sketch:type="MSShapeGroup"></path>
                <path d="M82.83,161.382 L81.33,161.373 C53.128,161.007 35.75,150.387 34.471,143.007 L33.66,138.318 C29.452,113.98 24.962,87.81 24.962,85.371 C25.063,74.039 50.481,65.173 82.83,65.173 C115.279,65.173 140.697,74.045 140.697,85.371 C140.697,88.692 132.665,134.688 131.187,143.013 C129.702,151.697 109.476,161.382 82.83,161.382 L82.83,161.382 Z M82.83,68.173 C50.101,68.173 28.036,77.072 27.962,85.384 C27.962,87.757 33.808,121.562 36.617,137.807 L37.427,142.496 C38.388,148.039 54.829,158.382 82.83,158.382 C110.855,158.382 127.284,148.042 128.232,142.498 C131.445,124.395 137.697,87.835 137.697,85.371 C137.697,77.065 115.65,68.173 82.83,68.173 L82.83,68.173 Z M82.83,148.764 C72.15,148.764 63.461,140.076 63.461,129.396 C63.461,118.716 72.15,110.028 82.83,110.028 C93.509,110.028 102.198,118.716 102.198,129.396 C102.198,140.076 93.509,148.764 82.83,148.764 L82.83,148.764 Z M82.83,113.028 C73.804,113.028 66.461,120.371 66.461,129.396 C66.461,138.421 73.804,145.764 82.83,145.764 C91.855,145.764 99.198,138.421 99.198,129.396 C99.198,120.371 91.855,113.028 82.83,113.028 L82.83,113.028 Z M82.83,92.673 C69.892,92.673 45.382,90.769 45.226,83.561 C45.225,76.222 69.823,74.292 82.83,74.292 C95.836,74.292 120.434,76.203 120.434,83.436 C120.434,90.742 95.836,92.673 82.83,92.673 L82.83,92.673 Z M82.83,77.292 C59.999,77.292 48.225,81.663 48.225,83.528 C48.236,84.011 49.994,85.849 57.662,87.472 C64.369,88.891 73.307,89.673 82.83,89.673 C105.661,89.673 117.434,85.301 117.434,83.436 C117.434,83.023 115.838,81.142 108.032,79.493 C101.314,78.073 92.363,77.292 82.83,77.292 L82.83,77.292 Z" id="Fill-2" fill="#FFFFFF" sketch:type="MSShapeGroup"></path>
                <path d="M83.014,198.224 C61.916,198.224 45.147,191.45 43.141,182.118 C42.851,180.765 41.276,172.608 39.171,161.167 L39.146,160.896 L39.146,160.559 C38.994,159.544 39.231,158.601 39.821,157.889 C40.436,157.149 41.374,156.724 42.396,156.724 C43.722,156.724 44.756,157.571 44.95,157.741 C45.027,157.799 58.657,168.33 82.83,168.33 C106.449,168.33 120.008,158.339 120.823,157.72 C121.125,157.451 122.06,156.724 123.355,156.724 C125.054,156.724 126.881,157.885 126.881,160.435 L126.856,161.167 C124.725,172.753 123.162,180.93 122.882,182.14 C120.859,191.452 104.09,198.224 83.014,198.224 L83.014,198.224 Z M42.146,160.759 C44.234,172.101 45.789,180.157 46.074,181.488 C47.729,189.19 63.956,195.224 83.014,195.224 C102.054,195.224 118.281,189.189 119.955,181.484 C120.224,180.317 121.798,172.082 123.881,160.759 L123.881,160.435 C123.881,159.779 123.622,159.724 123.355,159.724 C123.129,159.724 122.893,159.893 122.828,159.952 L122.718,160.047 C122.133,160.508 108.111,171.33 82.83,171.33 C57.545,171.33 43.61,160.505 43.03,160.044 C42.829,159.877 42.536,159.724 42.396,159.724 C42.259,159.724 42.158,159.772 42.13,159.806 C42.105,159.835 42.082,159.954 42.121,160.159 L42.146,160.435 L42.146,160.759 L42.146,160.759 Z" id="Fill-3" fill="#FFFFFF" sketch:type="MSShapeGroup"></path>
                <path d="M82.83,139.83 C77.076,139.83 72.395,135.149 72.395,129.396 C72.395,123.643 77.076,118.962 82.83,118.962 C88.583,118.962 93.264,123.643 93.264,129.396 C93.264,135.149 88.583,139.83 82.83,139.83 L82.83,139.83 Z M82.83,121.962 C78.73,121.962 75.395,125.297 75.395,129.396 C75.395,133.495 78.73,136.83 82.83,136.83 C86.929,136.83 90.264,133.495 90.264,129.396 C90.264,125.297 86.929,121.962 82.83,121.962 L82.83,121.962 Z" id="Fill-4" fill="#FFFFFF" sketch:type="MSShapeGroup"></path>
                <path d="M140.613,45.321 C139.579,40.712 138.543,8.961 129.226,9.473 C96.099,10.496 61.938,-23.816 37.092,52.492 C-39.513,88.34 31.766,117.148 92.412,114.586 C152.338,112.078 203.502,68.879 140.613,45.321" id="Fill-5" fill="#E9E9E9" sketch:type="MSShapeGroup"></path>
                <path d="M82.977,2.652 C97.434,2.653 112.676,9.495 127.74,9.495 C128.234,9.495 128.732,9.488 129.226,9.473 C129.3,9.469 129.374,9.467 129.447,9.467 C138.559,9.467 139.587,40.749 140.613,45.321 C203.502,68.879 152.338,112.078 92.412,114.586 C89.895,114.693 87.362,114.745 84.819,114.745 C26.107,114.745 -36.333,86.852 37.092,52.492 C50.279,11.991 66.089,2.652 82.977,2.652 M82.977,0.652 C72.751,0.652 64.58,3.921 57.262,10.941 C48.828,19.031 41.692,32.157 35.46,51.049 C10.725,62.761 -0.49,74.644 2.119,86.377 C6.347,105.386 47.488,116.745 84.819,116.745 C87.394,116.745 89.977,116.691 92.496,116.585 C131.837,114.938 167.861,96.089 171.159,75.425 C172.569,66.593 168.677,54 142.395,43.859 C142.258,42.849 142.104,41.372 141.934,39.74 C140.304,24.126 137.861,7.467 129.447,7.467 C129.338,7.467 129.227,7.47 129.116,7.476 C128.691,7.488 128.213,7.495 127.74,7.495 C120.356,7.495 112.724,5.755 105.344,4.071 C97.975,2.391 90.356,0.653 82.977,0.652" id="Fill-6" fill="#FFFFFF" sketch:type="MSShapeGroup"></path>
                <path d="M109.804,10.999 C105.502,12.963 78.365,20.494 75.387,18.202 C72.077,16.892 72.739,16.237 74.393,15.91 C77.042,17.547 81.674,18.529 109.804,10.999" id="Fill-7" fill="#FFFFFF" sketch:type="MSShapeGroup"></path>
                <path d="M142.167,55.564 C103.864,79.634 40.715,64.783 38.127,53.003 C34.504,57.1 38.127,68.368 38.127,68.368 C54.691,89.877 134.92,85.268 143.719,69.904 C144.754,65.806 142.684,57.1 142.167,55.564" id="Fill-8" fill="#FFFFFF" sketch:type="MSShapeGroup"></path>
                <path d="M173.633,119.5 C173.633,119.5 170.57,128.875 137.049,135.71 C115.634,140.078 108.383,139.168 102.55,139 L115.383,177.167 C115.383,177.167 105.55,201.167 91.55,204.334 C91.55,204.334 124.05,221.294 172.417,190.818 L144.938,164.485 L173.633,119.5" id="Fill-9" fill="#E9E9E9" sketch:type="MSShapeGroup"></path>
                <path d="M173.633,119.5 C173.633,119.5 173.441,120.086 172.63,121.073 L173.633,119.5 M172.63,121.073 L144.938,164.485 L172.417,190.818 C149.526,205.241 130.191,209.039 116.172,209.039 C100.568,209.039 91.55,204.334 91.55,204.334 C105.55,201.167 115.383,177.167 115.383,177.167 L102.55,139 C104.479,139.056 106.563,139.193 109.264,139.193 C114.729,139.193 122.717,138.633 137.049,135.71 C162.186,130.585 170.195,124.031 172.63,121.073 M173.634,116.5 C172.638,116.5 171.671,116.998 171.104,117.887 L170.204,119.297 C163.917,126.692 142.802,131.476 136.45,132.771 C121.411,135.838 113.732,136.193 109.264,136.193 C107.479,136.193 105.997,136.132 104.564,136.073 C103.895,136.046 103.258,136.02 102.636,136.002 C102.607,136.001 102.578,136 102.55,136 C101.601,136 100.706,136.45 100.139,137.215 C99.555,138.003 99.394,139.027 99.706,139.957 L112.172,177.029 C111.307,178.955 109.19,183.4 106.157,187.995 C101.102,195.654 95.822,200.291 90.888,201.407 C89.661,201.685 88.737,202.699 88.575,203.947 C88.413,205.195 89.046,206.411 90.162,206.993 C90.557,207.199 100.018,212.039 116.172,212.039 C134.879,212.039 154.341,205.754 174.016,193.357 C174.797,192.864 175.308,192.04 175.401,191.121 C175.494,190.202 175.159,189.291 174.492,188.652 L148.791,164.023 L175.067,122.829 C176.032,121.623 176.379,120.756 176.485,120.431 C176.954,118.995 176.281,117.434 174.915,116.788 C174.503,116.593 174.066,116.5 173.634,116.5" id="Fill-10" fill="#FFFFFF" sketch:type="MSShapeGroup"></path>
            </g>
        </g>
    </g>
</svg>