<?xml version="1.0" encoding="utf-8"?>
<!-- Generator: Adobe Illustrator 18.1.1, SVG Export Plug-In . SVG Version: 6.00 Build 0)  -->
<svg version="1.1" id="Layer_1" xmlns="http://www.w3.org/2000/svg" xmlns:xlink="http://www.w3.org/1999/xlink" x="0px" y="0px"
	 viewBox="0 0 128 128" enable-background="new 0 0 128 128" xml:space="preserve">
<g>
	<path fill="#E9E9E9" d="M64,0.2L64,0.2L64,0.2C33.6,0.2,8.8,8.4,8.8,18.6c0,2.7,6.6,41,9.3,56.2c1.2,6.9,18.8,16.8,46,16.8v-0.1
		v0.1c27.2,0,44.8-10,45.9-16.8c2.6-15.1,9.3-53.5,9.3-56.2C119.1,8.4,94.3,0.2,64,0.2z M64,79.2c-9.7,0-17.5-7.9-17.5-17.5
		S54.3,44.2,64,44.2s17.5,7.9,17.5,17.5S73.7,79.2,64,79.2z M64,24.2c-19.5,0-35.4-3.5-35.4-7.6S44.5,9.1,64,9.1s35.4,3.5,35.4,7.6
		C99.3,20.9,83.5,24.2,64,24.2z"/>
	<path fill="#E9E9E9" d="M103.6,90c-0.8,0-1.6,0.6-1.6,0.6S88.5,101.4,64,101.4S25.8,90.6,25.8,90.6S25.1,90,24.2,90
		c-1,0-2,0.6-2,2.1c0,0.2,0,0.2,0,0.5c2.1,11.3,3.6,19.3,3.9,20.5c1.8,8.3,18.1,14.6,37.7,14.6l0,0l0,0l0,0l0,0
		c19.6,0,35.8-6.2,37.7-14.6c0.2-1.2,1.8-9.2,3.9-20.5c0-0.2,0-0.2,0-0.5C105.6,90.8,104.6,90,103.6,90z"/>
	<circle fill="#E9E9E9" cx="64" cy="61.8" r="8.8"/>
</g>
</svg>
