<?xml version="1.0" encoding="utf-8"?>
<!DOCTYPE svg PUBLIC "-//W3C//DTD SVG 1.1//EN" "http://www.w3.org/Graphics/SVG/1.1/DTD/svg11.dtd">
<svg version="1.1" xmlns="http://www.w3.org/2000/svg" xmlns:xlink="http://www.w3.org/1999/xlink" x="0px" y="0px" viewBox="213.5 179.6 182 444.1"
	 width="182" height="444.1" enable-background="new 213.5 179.6 182 444.1" xml:space="preserve">
<g id="Rectangle-74"></g>
<path fill="#999999" d="M233.6,623.8V265.7c0-22.2,18.2-40.5,40.5-40.5h52.1c4.6,14.7,17.7,25.3,33.9,25.3
	c19.8,0,35.4-15.7,35.4-35.4s-15.6-35.5-35.3-35.5c-16.2,0-29.4,10.6-33.9,25.3h-52.1c-33.4,0-60.7,27.3-60.7,60.7v358.1H233.6
	L233.6,623.8z M360.2,199.8c8.6,0,15.2,6.6,15.2,15.2c0,8.6-6.6,15.2-15.2,15.2S345,223.6,345,215S351.6,199.8,360.2,199.8z"/>
</svg>
