<svg width="16px" height="16px" id="Layer_1" data-name="Layer 1" xmlns="http://www.w3.org/2000/svg" viewBox="0 0 16 16"><defs><style>.cls-1{fill:#fff;}.cls-2{fill:#f79232;}</style></defs><title>icon-reviewed</title><g id="Page-1"><g id="icon-reviewed"><path id="Shape" class="cls-1" d="M11.11,0.63a7.86,7.86,0,0,1,4.26,4.26,7.94,7.94,0,0,1,0,6.22,7.86,7.86,0,0,1-4.26,4.26,7.94,7.94,0,0,1-6.22,0A7.86,7.86,0,0,1,.63,11.11a7.94,7.94,0,0,1,0-6.22A7.86,7.86,0,0,1,4.89.63a7.94,7.94,0,0,1,6.22,0h0Z"/><path id="Shape-2" data-name="Shape" class="cls-2" d="M10.33,2.48a5.89,5.89,0,0,1,3.19,3.19,6,6,0,0,1,0,4.66,5.89,5.89,0,0,1-3.19,3.19,6,6,0,0,1-4.66,0,5.89,5.89,0,0,1-3.19-3.19,6,6,0,0,1,0-4.66A5.89,5.89,0,0,1,5.67,2.48a6,6,0,0,1,4.66,0h0Z"/><rect id="Rectangle" class="cls-1" x="6.99" y="3.99" width="2" height="8" transform="translate(-3.31 7.99) rotate(-45)"/></g></g></svg>