<svg xmlns="http://www.w3.org/2000/svg" width="82.88" height="90.92" viewBox="0 0 82.88 90.92"><title>magnifying-glass</title><path d="M67.93,69.26H17.37a3,3,0,0,1-3-3v-1a3,3,0,0,0,3,3H67.93v1m0,0v-1a3,3,0,0,0,3-3v1a3,3,0,0,1-3,3" transform="translate(-0.87 -0.82)" style="fill:#f5f5f5"/><path d="M70.91,10.35V10.29s0,0,0,.05" transform="translate(-0.87 -0.82)" style="fill:#d0d9de"/><path d="M67.93,67.28H17.37a2,2,0,0,1-2-2V3.79a2,2,0,0,1,2-2H62.48l7.44,7.52v56a2,2,0,0,1-2,2" transform="translate(-0.87 -0.82)" style="fill:#f5f5f5"/><path d="M67.93,67.28v-1H17.37a1,1,0,0,1-1-1V3.79a1,1,0,0,1,1-1h44.7l6.86,6.93V65.3a1,1,0,0,1-1,1v2a3,3,0,0,0,3-3v-56a1,1,0,0,0-.29-0.7L63.18,1.12a1,1,0,0,0-.7-0.29H17.37a3,3,0,0,0-3,3V65.3a3,3,0,0,0,3,3H67.93v-1" transform="translate(-0.87 -0.82)" style="fill:#ccc"/><path d="M68.52,9.33h-6V3.22l6,6.11" transform="translate(-0.87 -0.82)" style="fill:#f5f5f5"/><path d="M69.91,9.33H68.52l-6-6.11V1.81l7.44,7.52" transform="translate(-0.87 -0.82)" style="fill:#ccc"/><path d="M69.91,9.33v-1H63.47V4.22L69.21,10l0.7-.7v0l0.7-.7L63.18,1.12a1,1,0,0,0-1.7.7V9.33a1,1,0,0,0,1,1h7.44a1,1,0,0,0,.7-1.69l-0.7.7" transform="translate(-0.87 -0.82)" style="fill:#ccc"/><path d="M54.4,81.1H3.84a3,3,0,0,1-3-3v-1a3,3,0,0,0,3,3H54.4v1m0,0v-1a3,3,0,0,0,3-3v1a3,3,0,0,1-3,3" transform="translate(-0.87 -0.82)" style="fill:#f5f5f5"/><path d="M57.38,22.18V22.13s0,0,0,.05" transform="translate(-0.87 -0.82)" style="fill:#d0d9de"/><path d="M54.4,79.12H3.84a2,2,0,0,1-2-2V15.63a2,2,0,0,1,2-2H48.95l7.44,7.52v56a2,2,0,0,1-2,2" transform="translate(-0.87 -0.82)" style="fill:#f5f5f5"/><path d="M54.4,79.12v-1H3.84a1,1,0,0,1-1-1V15.63a1,1,0,0,1,1-1h44.7l6.86,6.93V77.14a1,1,0,0,1-1,1v2a3,3,0,0,0,3-3v-56a1,1,0,0,0-.29-0.7L49.65,13a1,1,0,0,0-.7-0.29H3.84a3,3,0,0,0-3,3v61.5a3,3,0,0,0,3,3H54.4v-1" transform="translate(-0.87 -0.82)" style="fill:#ccc"/><path d="M55,21.17h-6V15.06l6,6.11" transform="translate(-0.87 -0.82)" style="fill:#f5f5f5"/><path d="M56.38,21.17H55l-6-6.11V13.65l7.44,7.52" transform="translate(-0.87 -0.82)" style="fill:#ccc"/><path d="M56.38,21.17v-1H49.94V16.06l5.74,5.8,0.7-.7v0l0.7-.7L49.65,13a1,1,0,0,0-1.7.7v7.52a1,1,0,0,0,1,1h7.44a1,1,0,0,0,.7-1.69l-0.7.7" transform="translate(-0.87 -0.82)" style="fill:#ccc"/><g style="isolation:isolate"><path d="M26.16,52.18c0-.53-0.08-1-0.08-1.54a7.1,7.1,0,0,1,3.29-6.13l1.87-1.34a4.16,4.16,0,0,0,1.91-3.53,4,4,0,0,0-4.38-4.1,4.46,4.46,0,0,0-4.59,4.63A6.22,6.22,0,0,0,24.41,42l-4.59-.33a6.91,6.91,0,0,1-.24-1.87c0-4.06,3-8.48,9.17-8.48S38,35.3,38,39.44a8.53,8.53,0,0,1-4.06,7.14L32.2,47.8a4.53,4.53,0,0,0-2,3.86,3.16,3.16,0,0,0,0,.53H26.16ZM28.23,55a3,3,0,0,1,3,3A3,3,0,1,1,28.23,55Z" transform="translate(-0.87 -0.82)" style="fill:#ccc"/></g><path d="M82.23,90.23a2.57,2.57,0,0,1-3.63,0L67.18,78.81l3.63-3.63L82.23,86.61a2.57,2.57,0,0,1,0,3.63" transform="translate(-0.87 -0.82)" style="fill:#264970"/><path d="M80.58,88.58a1.81,1.81,0,0,1-2.55,0L67.15,77.7l2.55-2.55L80.58,86a1.8,1.8,0,0,1,0,2.55l0.54,0.54,1.65,1.65a3.33,3.33,0,0,0,0-4.7L71.35,74.65a0.76,0.76,0,0,0-1.07,0l-3.63,3.63a0.76,0.76,0,0,0,0,1.07L78.07,90.77a3.33,3.33,0,0,0,4.7,0l-0.54-.54Z" transform="translate(-0.87 -0.82)" style="fill:#264970"/><path d="M56.84,50.24a14.6,14.6,0,1,0,10.32,4.28,14.5,14.5,0,0,0-10.32-4.28m0,34.31a19.71,19.71,0,1,1,13.94-5.77,19.58,19.58,0,0,1-13.94,5.77" transform="translate(-0.87 -0.82)" style="fill:#54bbb6"/><path d="M56.84,77.6a12.76,12.76,0,1,1,9-3.74,12.68,12.68,0,0,1-9,3.74m0-34.48A21.72,21.72,0,1,0,72.2,49.48a21.58,21.58,0,0,0-15.36-6.36m0,37.08A15.36,15.36,0,1,0,46,75.7a15.31,15.31,0,0,0,10.86,4.5m0-34.31a18.95,18.95,0,1,1-13.4,5.55,18.89,18.89,0,0,1,13.4-5.55" transform="translate(-0.87 -0.82)" style="fill:#264970"/><path d="M56.84,80.2a15.36,15.36,0,0,1-4.49-30A15.36,15.36,0,1,0,67.7,75.7a15.31,15.31,0,0,1-10.86,4.5M72.2,64.84A15.37,15.37,0,0,0,61.35,50.15,15.37,15.37,0,0,1,72.2,64.84" transform="translate(-0.87 -0.82)" style="fill:#264970"/><path d="M56.84,82A17.2,17.2,0,1,1,69,77a17.14,17.14,0,0,1-12.16,5M52.35,50.15a15.43,15.43,0,1,0,4.49-.67,15.3,15.3,0,0,0-4.49.67" transform="translate(-0.87 -0.82)" style="fill:#47a5a9"/></svg>