<svg xmlns="http://www.w3.org/2000/svg" width="12.99" height="13" viewBox="0 0 12.99 13"><title>error-2</title><path d="M5.66,0.24a1.64,1.64,0,0,1,1.71,0A1.65,1.65,0,0,1,8,.9l4.85,9.75a1.6,1.6,0,0,1,.17.8,1.54,1.54,0,0,1-.25.77,1.58,1.58,0,0,1-.59.56,1.6,1.6,0,0,1-.79.21H1.64a1.6,1.6,0,0,1-.79-0.2,1.62,1.62,0,0,1-.6-0.56A1.57,1.57,0,0,1,0,11.45a1.52,1.52,0,0,1,.18-0.8L5.07,0.9A1.57,1.57,0,0,1,5.66.24h0ZM6.88,1.45a0.41,0.41,0,0,0-.74,0L1.27,11.2a0.38,0.38,0,0,0,0,.39,0.39,0.39,0,0,0,.35.19h9.72a0.39,0.39,0,0,0,.35-0.19,0.38,0.38,0,0,0,0-.39ZM5.7,4.06H7.33V8.13H5.7V4.06Zm0,4.88H7.33v1.63H5.7V8.94Z" transform="translate(0)" style="fill:#f6c342"/></svg>